<?xml version="1.0" encoding="UTF-8" standalone="no"?>
<!DOCTYPE svg PUBLIC "-//W3C//DTD SVG 1.1//EN"
 "http://www.w3.org/Graphics/SVG/1.1/DTD/svg11.dtd">
<!-- Generated by graphviz version 2.40.1 (20161225.0304)
 -->
<!-- Title: %3 Pages: 1 -->
<svg width="416pt" height="416pt"
 viewBox="0.00 0.00 415.73 416.00" xmlns="http://www.w3.org/2000/svg" xmlns:xlink="http://www.w3.org/1999/xlink">
<g id="graph0" class="graph" transform="scale(1 1) rotate(0) translate(4 412)">
<title>%3</title>
<polygon fill="#ffffff" stroke="transparent" points="-4,4 -4,-412 411.7271,-412 411.7271,4 -4,4"/>
<text text-anchor="middle" x="203.8635" y="-9.6" font-family="Helvetica,sans-Serif" font-size="18.00" fill="#000000">Issue Lifecycle</text>
<!-- BACKLOG -->
<g id="node1" class="node">
<title>BACKLOG</title>
<path fill="#d3d3d3" stroke="#000000" d="M74.2271,-408C74.2271,-408 29.2271,-408 29.2271,-408 23.2271,-408 17.2271,-402 17.2271,-396 17.2271,-396 17.2271,-384 17.2271,-384 17.2271,-378 23.2271,-372 29.2271,-372 29.2271,-372 74.2271,-372 74.2271,-372 80.2271,-372 86.2271,-378 86.2271,-384 86.2271,-384 86.2271,-396 86.2271,-396 86.2271,-402 80.2271,-408 74.2271,-408"/>
<text text-anchor="middle" x="51.7271" y="-386.3" font-family="Helvetica,sans-Serif" font-size="14.00" fill="#000000">Backlog</text>
</g>
<!-- TODO -->
<g id="node5" class="node">
<title>TODO</title>
<ellipse fill="#add8e6" stroke="#000000" cx="79.7271" cy="-304" rx="31.6951" ry="18"/>
<text text-anchor="middle" x="79.7271" y="-300.3" font-family="Helvetica,sans-Serif" font-size="14.00" fill="#000000">Todo</text>
</g>
<!-- BACKLOG&#45;&gt;TODO -->
<g id="edge1" class="edge">
<title>BACKLOG&#45;&gt;TODO</title>
<path fill="none" stroke="#006400" d="M17.0006,-372.1666C4.509,-363.2757 -4.8421,-351.8945 2.7271,-340 11.031,-326.951 25.4426,-318.5525 39.5687,-313.1839"/>
<polygon fill="#006400" stroke="#006400" points="40.8647,-316.4406 49.2241,-309.9313 38.63,-309.8069 40.8647,-316.4406"/>
<text text-anchor="middle" x="25.7271" y="-343.6" font-family="Helvetica,sans-Serif" font-size="13.00" fill="#000000">Planned</text>
</g>
<!-- NEXT_VERSION -->
<g id="node2" class="node">
<title>NEXT_VERSION</title>
<path fill="#d3d3d3" stroke="#000000" d="M221.7271,-408C221.7271,-408 147.7271,-408 147.7271,-408 141.7271,-408 135.7271,-402 135.7271,-396 135.7271,-396 135.7271,-384 135.7271,-384 135.7271,-378 141.7271,-372 147.7271,-372 147.7271,-372 221.7271,-372 221.7271,-372 227.7271,-372 233.7271,-378 233.7271,-384 233.7271,-384 233.7271,-396 233.7271,-396 233.7271,-402 227.7271,-408 221.7271,-408"/>
<text text-anchor="middle" x="184.7271" y="-386.3" font-family="Helvetica,sans-Serif" font-size="14.00" fill="#000000">Next version</text>
</g>
<!-- DONE_DEAD -->
<g id="node3" class="node">
<title>DONE_DEAD</title>
<path fill="#ffc1c1" stroke="#000000" d="M177.7271,-64C177.7271,-64 61.7271,-64 61.7271,-64 55.7271,-64 49.7271,-58 49.7271,-52 49.7271,-52 49.7271,-40 49.7271,-40 49.7271,-34 55.7271,-28 61.7271,-28 61.7271,-28 177.7271,-28 177.7271,-28 183.7271,-28 189.7271,-34 189.7271,-40 189.7271,-40 189.7271,-52 189.7271,-52 189.7271,-58 183.7271,-64 177.7271,-64"/>
<text text-anchor="middle" x="119.7271" y="-42.3" font-family="Helvetica,sans-Serif" font-size="14.00" fill="#000000">Done (Abandoned)</text>
</g>
<!-- DONE_CLOSED -->
<g id="node4" class="node">
<title>DONE_CLOSED</title>
<path fill="#ffec8b" stroke="#000000" d="M348.7271,-64C348.7271,-64 262.7271,-64 262.7271,-64 256.7271,-64 250.7271,-58 250.7271,-52 250.7271,-52 250.7271,-40 250.7271,-40 250.7271,-34 256.7271,-28 262.7271,-28 262.7271,-28 348.7271,-28 348.7271,-28 354.7271,-28 360.7271,-34 360.7271,-40 360.7271,-40 360.7271,-52 360.7271,-52 360.7271,-58 354.7271,-64 348.7271,-64"/>
<text text-anchor="middle" x="305.7271" y="-42.3" font-family="Helvetica,sans-Serif" font-size="14.00" fill="#000000">Done (Closed)</text>
</g>
<!-- TODO&#45;&gt;BACKLOG -->
<g id="edge10" class="edge">
<title>TODO&#45;&gt;BACKLOG</title>
<path fill="none" stroke="#0000cd" d="M73.8936,-321.9172C70.1038,-333.5571 65.0866,-348.9673 60.7839,-362.1825"/>
<polygon fill="#0000cd" stroke="#0000cd" points="57.433,-361.1693 57.6652,-371.7616 64.0891,-363.3365 57.433,-361.1693"/>
<text text-anchor="middle" x="104.2271" y="-343.6" font-family="Helvetica,sans-Serif" font-size="13.00" fill="#000000">Unscheduled</text>
</g>
<!-- TODO&#45;&gt;NEXT_VERSION -->
<g id="edge7" class="edge">
<title>TODO&#45;&gt;NEXT_VERSION</title>
<path fill="none" stroke="#0000cd" d="M104.9384,-315.0768C117.6244,-321.3404 132.798,-329.9335 144.7271,-340 152.7981,-346.8109 160.3873,-355.4523 166.7409,-363.6278"/>
<polygon fill="#0000cd" stroke="#0000cd" points="164.1055,-365.9491 172.883,-371.8825 169.7214,-361.7704 164.1055,-365.9491"/>
<text text-anchor="middle" x="192.2271" y="-343.6" font-family="Helvetica,sans-Serif" font-size="13.00" fill="#000000">Reschedule</text>
</g>
<!-- TODO&#45;&gt;DONE_DEAD -->
<g id="edge9" class="edge">
<title>TODO&#45;&gt;DONE_DEAD</title>
<path fill="none" stroke="#cd0000" d="M82.5398,-285.8579C89.4108,-241.5401 107.0894,-127.5129 115.3507,-74.2275"/>
<polygon fill="#cd0000" stroke="#cd0000" points="118.844,-74.5402 116.9175,-64.122 111.9266,-73.4677 118.844,-74.5402"/>
<text text-anchor="middle" x="132.7271" y="-171.6" font-family="Helvetica,sans-Serif" font-size="13.00" fill="#000000">Not needed</text>
</g>
<!-- WIP -->
<g id="node6" class="node">
<title>WIP</title>
<ellipse fill="#98fb98" stroke="#000000" cx="239.7271" cy="-218" rx="107.781" ry="18"/>
<text text-anchor="middle" x="239.7271" y="-214.3" font-family="Helvetica,sans-Serif" font-size="14.00" fill="#000000">Work in progress (WIP)</text>
</g>
<!-- TODO&#45;&gt;WIP -->
<g id="edge2" class="edge">
<title>TODO&#45;&gt;WIP</title>
<path fill="none" stroke="#006400" d="M102.9925,-291.4949C127.97,-278.0694 168.1496,-256.4729 198.5044,-240.1572"/>
<polygon fill="#006400" stroke="#006400" points="200.4305,-243.0955 207.5817,-235.2781 197.1164,-236.9297 200.4305,-243.0955"/>
<text text-anchor="middle" x="198.7271" y="-257.6" font-family="Helvetica,sans-Serif" font-size="13.00" fill="#000000">Start work</text>
</g>
<!-- WIP&#45;&gt;NEXT_VERSION -->
<g id="edge8" class="edge">
<title>WIP&#45;&gt;NEXT_VERSION</title>
<path fill="none" stroke="#0000cd" d="M242.7965,-236.4165C246.4256,-263.7986 249.6944,-316.0849 229.7271,-354 227.7341,-357.7844 225.1519,-361.3087 222.2327,-364.5544"/>
<polygon fill="#0000cd" stroke="#0000cd" points="219.6874,-362.1469 214.9288,-371.613 224.5519,-367.1805 219.6874,-362.1469"/>
<text text-anchor="middle" x="278.2271" y="-300.6" font-family="Helvetica,sans-Serif" font-size="13.00" fill="#000000">Reschedule</text>
</g>
<!-- WIP&#45;&gt;DONE_DEAD -->
<g id="edge6" class="edge">
<title>WIP&#45;&gt;DONE_DEAD</title>
<path fill="none" stroke="#cd0000" d="M216.7637,-200.2569C201.4154,-187.5218 181.5749,-169.2671 167.7271,-150 150.6946,-126.3018 137.4158,-95.596 129.1845,-73.7053"/>
<polygon fill="#cd0000" stroke="#cd0000" points="132.3714,-72.2278 125.6587,-64.0308 125.7945,-74.6248 132.3714,-72.2278"/>
<text text-anchor="middle" x="199.2271" y="-128.6" font-family="Helvetica,sans-Serif" font-size="13.00" fill="#000000">Abandoned</text>
</g>
<!-- DONE_OPEN -->
<g id="node7" class="node">
<title>DONE_OPEN</title>
<ellipse fill="#eedd82" stroke="#000000" cx="305.7271" cy="-132" rx="65.7887" ry="18"/>
<text text-anchor="middle" x="305.7271" y="-128.3" font-family="Helvetica,sans-Serif" font-size="14.00" fill="#000000">Done (Open)</text>
</g>
<!-- WIP&#45;&gt;DONE_OPEN -->
<g id="edge3" class="edge">
<title>WIP&#45;&gt;DONE_OPEN</title>
<path fill="none" stroke="#006400" d="M235.8694,-199.6621C234.7487,-189.6278 235.0791,-177.369 240.7271,-168 244.619,-161.544 250.1211,-156.1595 256.2955,-151.6938"/>
<polygon fill="#006400" stroke="#006400" points="258.464,-154.4636 265.0437,-146.1594 254.7216,-148.548 258.464,-154.4636"/>
<text text-anchor="middle" x="262.2271" y="-171.6" font-family="Helvetica,sans-Serif" font-size="13.00" fill="#000000">Merged</text>
</g>
<!-- DONE_OPEN&#45;&gt;DONE_CLOSED -->
<g id="edge4" class="edge">
<title>DONE_OPEN&#45;&gt;DONE_CLOSED</title>
<path fill="none" stroke="#006400" d="M305.7271,-113.7616C305.7271,-102.3597 305.7271,-87.4342 305.7271,-74.494"/>
<polygon fill="#006400" stroke="#006400" points="309.2272,-74.2121 305.7271,-64.2121 302.2272,-74.2121 309.2272,-74.2121"/>
<text text-anchor="middle" x="356.7271" y="-85.6" font-family="Helvetica,sans-Serif" font-size="13.00" fill="#000000">Tested and closed</text>
</g>
<!-- DONE_OPEN&#45;&gt;WIP -->
<g id="edge5" class="edge">
<title>DONE_OPEN&#45;&gt;WIP</title>
<path fill="none" stroke="#0000cd" d="M300.0623,-150.2254C296.3991,-160.2246 290.9567,-172.4857 283.7271,-182 280.5977,-186.1184 276.9056,-190.0592 273.0124,-193.7227"/>
<polygon fill="#0000cd" stroke="#0000cd" points="270.5992,-191.1834 265.3727,-200.3994 275.2056,-196.4542 270.5992,-191.1834"/>
<text text-anchor="middle" x="341.7271" y="-171.6" font-family="Helvetica,sans-Serif" font-size="13.00" fill="#000000">Needs more work</text>
</g>
</g>
</svg>
