<?xml version="1.0" encoding="UTF-8" standalone="no"?>
<!DOCTYPE svg PUBLIC "-//W3C//DTD SVG 1.1//EN"
 "http://www.w3.org/Graphics/SVG/1.1/DTD/svg11.dtd">
<!-- Generated by graphviz version 2.43.0 (0)
 -->
<!-- Title: A Pages: 1 -->
<svg width="1620pt" height="116pt"
 viewBox="0.00 0.00 1620.00 116.00" xmlns="http://www.w3.org/2000/svg" xmlns:xlink="http://www.w3.org/1999/xlink">
<g id="graph0" class="graph" transform="scale(1 1) rotate(0) translate(4 112)">
<title>A</title>
<polygon fill="white" stroke="transparent" points="-4,4 -4,-112 1616,-112 1616,4 -4,4"/>
<!-- OPS -->
<g id="node1" class="node">
<title>OPS</title>
<polygon fill="gold" stroke="brown" points="235.5,-108 140.5,-108 140.5,-72 235.5,-72 235.5,-108"/>
<text text-anchor="middle" x="188" y="-86.3" font-family="Times,serif" font-size="14.00">Operations</text>
</g>
<!-- PAYMENTS -->
<g id="node4" class="node">
<title>PAYMENTS</title>
<polygon fill="wheat" stroke="brown" points="86,-36 0,-36 0,0 86,0 86,-36"/>
<text text-anchor="middle" x="43" y="-14.3" font-family="Times,serif" font-size="14.00">Payments</text>
</g>
<!-- OPS&#45;&gt;PAYMENTS -->
<g id="edge1" class="edge">
<title>OPS&#45;&gt;PAYMENTS</title>
<path fill="none" stroke="brown" d="M152.53,-71.88C132.88,-62.39 108.28,-50.51 87.37,-40.42"/>
<polygon fill="brown" stroke="brown" points="88.88,-37.26 78.36,-36.07 85.84,-43.57 88.88,-37.26"/>
</g>
<!-- SETTLEMENTS -->
<g id="node5" class="node">
<title>SETTLEMENTS</title>
<polygon fill="wheat" stroke="brown" points="240,-36 136,-36 136,0 240,0 240,-36"/>
<text text-anchor="middle" x="188" y="-14.3" font-family="Times,serif" font-size="14.00">Settlements</text>
</g>
<!-- OPS&#45;&gt;SETTLEMENTS -->
<g id="edge2" class="edge">
<title>OPS&#45;&gt;SETTLEMENTS</title>
<path fill="none" stroke="brown" d="M188,-71.7C188,-63.98 188,-54.71 188,-46.11"/>
<polygon fill="brown" stroke="brown" points="191.5,-46.1 188,-36.1 184.5,-46.1 191.5,-46.1"/>
</g>
<!-- CONFIRMATIONS -->
<g id="node6" class="node">
<title>CONFIRMATIONS</title>
<polygon fill="wheat" stroke="brown" points="407.5,-36 290.5,-36 290.5,0 407.5,0 407.5,-36"/>
<text text-anchor="middle" x="349" y="-14.3" font-family="Times,serif" font-size="14.00">Confirmations</text>
</g>
<!-- OPS&#45;&gt;CONFIRMATIONS -->
<g id="edge3" class="edge">
<title>OPS&#45;&gt;CONFIRMATIONS</title>
<path fill="none" stroke="brown" d="M227.39,-71.88C249.39,-62.31 277.01,-50.3 300.36,-40.15"/>
<polygon fill="brown" stroke="brown" points="301.97,-43.27 309.74,-36.07 299.18,-36.85 301.97,-43.27"/>
</g>
<!-- REF -->
<g id="node2" class="node">
<title>REF</title>
<polygon fill="gold" stroke="brown" points="871,-108 679,-108 679,-72 871,-72 871,-108"/>
<text text-anchor="middle" x="775" y="-86.3" font-family="Times,serif" font-size="14.00">Reference Data Services</text>
</g>
<!-- Instrument Data -->
<g id="node7" class="node">
<title>Instrument Data</title>
<polygon fill="wheat" stroke="brown" points="592.5,-36 457.5,-36 457.5,0 592.5,0 592.5,-36"/>
<text text-anchor="middle" x="525" y="-14.3" font-family="Times,serif" font-size="14.00">Instrument Data</text>
</g>
<!-- REF&#45;&gt;Instrument Data -->
<g id="edge4" class="edge">
<title>REF&#45;&gt;Instrument Data</title>
<path fill="none" stroke="brown" d="M714.16,-71.97C678.47,-61.97 633.21,-49.3 595.91,-38.85"/>
<polygon fill="brown" stroke="brown" points="596.68,-35.44 586.11,-36.11 594.8,-42.18 596.68,-35.44"/>
</g>
<!-- Pricing Data -->
<g id="node8" class="node">
<title>Pricing Data</title>
<polygon fill="wheat" stroke="brown" points="749,-36 643,-36 643,0 749,0 749,-36"/>
<text text-anchor="middle" x="696" y="-14.3" font-family="Times,serif" font-size="14.00">Pricing Data</text>
</g>
<!-- REF&#45;&gt;Pricing Data -->
<g id="edge5" class="edge">
<title>REF&#45;&gt;Pricing Data</title>
<path fill="none" stroke="brown" d="M755.47,-71.7C745.62,-62.97 733.51,-52.24 722.8,-42.75"/>
<polygon fill="brown" stroke="brown" points="725.11,-40.12 715.3,-36.1 720.47,-45.36 725.11,-40.12"/>
</g>
<!-- Prodcut Data -->
<g id="node9" class="node">
<title>Prodcut Data</title>
<polygon fill="wheat" stroke="brown" points="910.5,-36 799.5,-36 799.5,0 910.5,0 910.5,-36"/>
<text text-anchor="middle" x="855" y="-14.3" font-family="Times,serif" font-size="14.00">Prodcut Data</text>
</g>
<!-- REF&#45;&gt;Prodcut Data -->
<g id="edge6" class="edge">
<title>REF&#45;&gt;Prodcut Data</title>
<path fill="none" stroke="brown" d="M794.78,-71.7C804.75,-62.97 817.01,-52.24 827.86,-42.75"/>
<polygon fill="brown" stroke="brown" points="830.23,-45.32 835.45,-36.1 825.62,-40.06 830.23,-45.32"/>
</g>
<!-- Party Data -->
<g id="node10" class="node">
<title>Party Data</title>
<polygon fill="wheat" stroke="brown" points="1053.5,-36 960.5,-36 960.5,0 1053.5,0 1053.5,-36"/>
<text text-anchor="middle" x="1007" y="-14.3" font-family="Times,serif" font-size="14.00">Party Data</text>
</g>
<!-- REF&#45;&gt;Party Data -->
<g id="edge7" class="edge">
<title>REF&#45;&gt;Party Data</title>
<path fill="none" stroke="brown" d="M831.46,-71.97C867.62,-61.05 914.39,-46.94 950.55,-36.03"/>
<polygon fill="brown" stroke="brown" points="951.89,-39.28 960.45,-33.04 949.87,-32.58 951.89,-39.28"/>
</g>
<!-- TRADE -->
<g id="node3" class="node">
<title>TRADE</title>
<polygon fill="gold" stroke="brown" points="1415,-108 1283,-108 1283,-72 1415,-72 1415,-108"/>
<text text-anchor="middle" x="1349" y="-86.3" font-family="Times,serif" font-size="14.00">Sales &amp; Trading</text>
</g>
<!-- Position Services -->
<g id="node11" class="node">
<title>Position Services</title>
<polygon fill="wheat" stroke="brown" points="1242.5,-36 1103.5,-36 1103.5,0 1242.5,0 1242.5,-36"/>
<text text-anchor="middle" x="1173" y="-14.3" font-family="Times,serif" font-size="14.00">Position Services</text>
</g>
<!-- TRADE&#45;&gt;Position Services -->
<g id="edge8" class="edge">
<title>TRADE&#45;&gt;Position Services</title>
<path fill="none" stroke="brown" d="M1305.95,-71.88C1281.67,-62.22 1251.16,-50.09 1225.49,-39.88"/>
<polygon fill="brown" stroke="brown" points="1226.5,-36.51 1215.91,-36.07 1223.91,-43.02 1226.5,-36.51"/>
</g>
<!-- Risk Services -->
<g id="node12" class="node">
<title>Risk Services</title>
<polygon fill="wheat" stroke="brown" points="1405.5,-36 1292.5,-36 1292.5,0 1405.5,0 1405.5,-36"/>
<text text-anchor="middle" x="1349" y="-14.3" font-family="Times,serif" font-size="14.00">Risk Services</text>
</g>
<!-- TRADE&#45;&gt;Risk Services -->
<g id="edge9" class="edge">
<title>TRADE&#45;&gt;Risk Services</title>
<path fill="none" stroke="brown" d="M1349,-71.7C1349,-63.98 1349,-54.71 1349,-46.11"/>
<polygon fill="brown" stroke="brown" points="1352.5,-46.1 1349,-36.1 1345.5,-46.1 1352.5,-46.1"/>
</g>
<!-- Trade Management -->
<g id="node13" class="node">
<title>Trade Management</title>
<polygon fill="wheat" stroke="brown" points="1612,-36 1456,-36 1456,0 1612,0 1612,-36"/>
<text text-anchor="middle" x="1534" y="-14.3" font-family="Times,serif" font-size="14.00">Trade Management</text>
</g>
<!-- TRADE&#45;&gt;Trade Management -->
<g id="edge10" class="edge">
<title>TRADE&#45;&gt;Trade Management</title>
<path fill="none" stroke="brown" d="M1394.26,-71.88C1420,-62.14 1452.41,-49.87 1479.54,-39.61"/>
<polygon fill="brown" stroke="brown" points="1480.78,-42.88 1488.89,-36.07 1478.3,-36.33 1480.78,-42.88"/>
</g>
</g>
</svg>
