<?xml version="1.0" encoding="UTF-8" standalone="no"?>
<!DOCTYPE svg PUBLIC "-//W3C//DTD SVG 1.1//EN"
 "http://www.w3.org/Graphics/SVG/1.1/DTD/svg11.dtd">
<!-- Generated by graphviz version 2.43.0 (0)
 -->
<!-- Title: A Pages: 1 -->
<svg width="670pt" height="188pt"
 viewBox="0.00 0.00 670.00 188.00" xmlns="http://www.w3.org/2000/svg" xmlns:xlink="http://www.w3.org/1999/xlink">
<g id="graph0" class="graph" transform="scale(1 1) rotate(0) translate(4 184)">
<title>A</title>
<polygon fill="white" stroke="transparent" points="-4,4 -4,-184 666,-184 666,4 -4,4"/>
<!-- CEO -->
<g id="node1" class="node">
<title>CEO</title>
<polygon fill="gold" stroke="brown" points="264.5,-180 169.5,-180 169.5,-144 264.5,-144 264.5,-180"/>
<text text-anchor="middle" x="217" y="-158.3" font-family="Times,serif" font-size="14.00">CEO Office</text>
</g>
<!-- CIO -->
<g id="node2" class="node">
<title>CIO</title>
<polygon fill="wheat" stroke="brown" points="119.5,-108 30.5,-108 30.5,-72 119.5,-72 119.5,-108"/>
<text text-anchor="middle" x="75" y="-86.3" font-family="Times,serif" font-size="14.00">CIO Office</text>
</g>
<!-- CEO&#45;&gt;CIO -->
<g id="edge1" class="edge">
<title>CEO&#45;&gt;CIO</title>
<path fill="none" stroke="brown" d="M182.26,-143.88C163.18,-134.47 139.32,-122.71 118.95,-112.67"/>
<polygon fill="brown" stroke="brown" points="120.39,-109.47 109.87,-108.19 117.29,-115.75 120.39,-109.47"/>
</g>
<!-- COO -->
<g id="node3" class="node">
<title>COO</title>
<polygon fill="wheat" stroke="brown" points="264.5,-108 169.5,-108 169.5,-72 264.5,-72 264.5,-108"/>
<text text-anchor="middle" x="217" y="-86.3" font-family="Times,serif" font-size="14.00">COO Office</text>
</g>
<!-- CEO&#45;&gt;COO -->
<g id="edge2" class="edge">
<title>CEO&#45;&gt;COO</title>
<path fill="none" stroke="brown" d="M217,-143.7C217,-135.98 217,-126.71 217,-118.11"/>
<polygon fill="brown" stroke="brown" points="220.5,-118.1 217,-108.1 213.5,-118.1 220.5,-118.1"/>
</g>
<!-- CTO -->
<g id="node4" class="node">
<title>CTO</title>
<polygon fill="wheat" stroke="brown" points="488.5,-108 395.5,-108 395.5,-72 488.5,-72 488.5,-108"/>
<text text-anchor="middle" x="442" y="-86.3" font-family="Times,serif" font-size="14.00">CTO Office</text>
</g>
<!-- CEO&#45;&gt;CTO -->
<g id="edge3" class="edge">
<title>CEO&#45;&gt;CTO</title>
<path fill="none" stroke="brown" d="M264.72,-146.15C300,-135.18 348.19,-120.18 385.42,-108.6"/>
<polygon fill="brown" stroke="brown" points="386.61,-111.9 395.12,-105.58 384.54,-105.21 386.61,-111.9"/>
</g>
<!-- FO -->
<g id="node5" class="node">
<title>FO</title>
<polygon fill="lightgray" stroke="brown" points="102,-36 0,-36 0,0 102,0 102,-36"/>
<text text-anchor="middle" x="51" y="-14.3" font-family="Times,serif" font-size="14.00">Front Office</text>
</g>
<!-- COO&#45;&gt;FO -->
<g id="edge5" class="edge">
<title>COO&#45;&gt;FO</title>
<path fill="none" stroke="brown" d="M176.39,-71.88C153.6,-62.26 124.97,-50.19 100.83,-40.01"/>
<polygon fill="brown" stroke="brown" points="102.05,-36.73 91.48,-36.07 99.33,-43.18 102.05,-36.73"/>
</g>
<!-- CONT -->
<g id="node6" class="node">
<title>CONT</title>
<polygon fill="lightgray" stroke="brown" points="282,-36 152,-36 152,0 282,0 282,-36"/>
<text text-anchor="middle" x="217" y="-14.3" font-family="Times,serif" font-size="14.00">Head of Control</text>
</g>
<!-- COO&#45;&gt;CONT -->
<g id="edge4" class="edge">
<title>COO&#45;&gt;CONT</title>
<path fill="none" stroke="brown" d="M217,-71.7C217,-63.98 217,-54.71 217,-46.11"/>
<polygon fill="brown" stroke="brown" points="220.5,-46.1 217,-36.1 213.5,-46.1 220.5,-46.1"/>
</g>
<!-- OPS -->
<g id="node7" class="node">
<title>OPS</title>
<polygon fill="wheat" stroke="brown" points="427.5,-36 332.5,-36 332.5,0 427.5,0 427.5,-36"/>
<text text-anchor="middle" x="380" y="-14.3" font-family="Times,serif" font-size="14.00">Operations</text>
</g>
<!-- CTO&#45;&gt;OPS -->
<g id="edge8" class="edge">
<title>CTO&#45;&gt;OPS</title>
<path fill="none" stroke="brown" d="M426.67,-71.7C419.24,-63.3 410.18,-53.07 402.02,-43.86"/>
<polygon fill="brown" stroke="brown" points="404.4,-41.27 395.15,-36.1 399.16,-45.91 404.4,-41.27"/>
</g>
<!-- RISK -->
<g id="node8" class="node">
<title>RISK</title>
<polygon fill="wheat" stroke="brown" points="532,-36 478,-36 478,0 532,0 532,-36"/>
<text text-anchor="middle" x="505" y="-14.3" font-family="Times,serif" font-size="14.00">Risk</text>
</g>
<!-- CTO&#45;&gt;RISK -->
<g id="edge6" class="edge">
<title>CTO&#45;&gt;RISK</title>
<path fill="none" stroke="brown" d="M457.57,-71.7C465.2,-63.22 474.52,-52.86 482.88,-43.58"/>
<polygon fill="brown" stroke="brown" points="485.52,-45.88 489.61,-36.1 480.31,-41.2 485.52,-45.88"/>
</g>
<!-- TREASURY -->
<g id="node9" class="node">
<title>TREASURY</title>
<polygon fill="wheat" stroke="brown" points="662,-36 582,-36 582,0 662,0 662,-36"/>
<text text-anchor="middle" x="622" y="-14.3" font-family="Times,serif" font-size="14.00">Treasury</text>
</g>
<!-- CTO&#45;&gt;TREASURY -->
<g id="edge7" class="edge">
<title>CTO&#45;&gt;TREASURY</title>
<path fill="none" stroke="brown" d="M486.03,-71.88C512.08,-61.75 545.15,-48.89 572.15,-38.38"/>
<polygon fill="brown" stroke="brown" points="573.75,-41.52 581.8,-34.63 571.21,-34.99 573.75,-41.52"/>
</g>
</g>
</svg>
